<?xml version="1.0" encoding="utf-8"?>
<!-- Generator: Adobe Illustrator 21.1.0, SVG Export Plug-In . SVG Version: 6.00 Build 0)  -->
<svg version="1.1" xmlns="http://www.w3.org/2000/svg" xmlns:xlink="http://www.w3.org/1999/xlink" x="0px" y="0px"
	 viewBox="0 0 1024 768" style="enable-background:new 0 0 1024 768;" xml:space="preserve">
<style type="text/css">
	.st0{fill:none;stroke:#000000;stroke-width:2;stroke-miterlimit:10;}
	.st1{display:none;fill:none;stroke:#000000;stroke-width:2;stroke-miterlimit:10;}
	.st2{display:none;}
	.st3{font-family:'TempusSansITC';}
	.st4{font-size:100px;}
	.st5{fill:none;}
	.st6{display:inline;fill:#9E0000;}
	.st7{font-size:80px;}
	.st8{display:none;fill:none;stroke:#000000;stroke-width:5;stroke-miterlimit:10;}
	.st9{fill:#FFFFFF;stroke:#000000;stroke-width:2;stroke-miterlimit:10;}
</style>
<g id="Layer_1">
	<line class="st0" x1="375.5" y1="153.5" x2="375.5" y2="112.5"/>
	<line class="st0" x1="375.5" y1="112.5" x2="177.5" y2="112.5"/>
	<line class="st0" x1="177.5" y1="521.5" x2="177.5" y2="112.5"/>
	<line class="st1" x1="292" y1="686.5" x2="400" y2="686.5"/>
	<line class="st1" x1="442" y1="686.5" x2="550" y2="686.5"/>
	<line class="st1" x1="593" y1="685.5" x2="701" y2="685.5"/>
	<line class="st1" x1="735" y1="685.5" x2="843" y2="685.5"/>
	<line class="st0" x1="177.5" y1="167.5" x2="246.5" y2="112.5"/>
	<line class="st0" x1="125.5" y1="521.5" x2="227.5" y2="521.5"/>
	<text transform="matrix(1 0 0 1 318.0386 685.8477)" class="st2 st3 st4">H        N   G</text>
	<rect x="599.6" y="151.5" class="st5" width="319.4" height="330.5"/>
	<text transform="matrix(1 0 0 1 599.6162 212.1128)" class="st2"><tspan x="0" y="0" class="st6 st3 st7">L B C O </tspan><tspan x="0" y="96" class="st6 st3 st7">P D  K S </tspan><tspan x="0" y="192" class="st6 st3 st7">E F</tspan></text>
	<line class="st8" x1="594.5" y1="153.5" x2="641.5" y2="228.5"/>
	<line class="st8" x1="704.5" y1="153.5" x2="786.5" y2="226.5"/>
	<line class="st8" x1="779.5" y1="152.5" x2="862.5" y2="226.5"/>
	<line class="st8" x1="593.5" y1="254.5" x2="663.5" y2="315.5"/>
	<line class="st8" x1="654.5" y1="257.5" x2="712.5" y2="309.5"/>
	<line class="st8" x1="763.5" y1="249.5" x2="814.5" y2="319.5"/>
	<line class="st8" x1="829.5" y1="234.5" x2="903.5" y2="331.5"/>
	<line class="st8" x1="647" y1="154" x2="701" y2="208"/>
	<line class="st8" x1="593" y1="344" x2="647" y2="408"/>
	<line class="st8" x1="661.5" y1="358.5" x2="723.5" y2="401.5"/>
</g>
<g id="l_x5F_leg">
	<line class="st0" x1="375.5" y1="358.5" x2="321.5" y2="415.5"/>
</g>
<g id="r_x5F_leg">
	<line class="st0" x1="375.5" y1="358.5" x2="429.5" y2="407.5"/>
</g>
<g id="r_x5F_arm">
	<line class="st0" x1="375.5" y1="295.5" x2="468.5" y2="273.5"/>
</g>
<g id="l_x5F_arm">
	<line class="st0" x1="375.5" y1="295.5" x2="285.5" y2="270.5"/>
</g>
<g id="boday">
	<line class="st0" x1="375.5" y1="261.5" x2="375.5" y2="358.5"/>
</g>
<g id="head">
	<circle class="st9" cx="375.5" cy="207.5" r="54"/>
</g>
</svg>
